P2
85 107
255
236
246
246
251
249
246
234
234
235
232
244
243
234
240
232
237
244
240
239
228
227
227
232
224
231
237
237
230
228
227
238
238
234
228
228
239
230
230
229
229
232
226
224
229
227
227
212
218
205
208
208
198
205
223
219
204
201
242
242
242
237
235
232
230
231
233
233
237
238
245
246
239
245
249
250
248
249
247
251
255
255
255
251
247
247
253
253
254
254
254
254
250
244
242
241
233
226
228
228
228
228
244
241
242
241
238
232
235
234
230
226
226
231
230
226
233
236
217
223
218
212
203
194
212
202
201
201
195
204
194
192
190
178
183
178
176
173
189
205
204
142
161
197
225
234
231
226
228
228
227
228
227
237
235
233
232
240
241
242
238
237
234
247
253
252
254
254
255
254
252
246
254
252
250
251
247
246
242
236
229
223
219
219
211
203
212
215
217
210
210
209
213
213
195
199
203
215
211
211
215
203
205
205
192
182
196
192
188
173
168
169
185
174
166
169
168
167
146
144
158
177
184
187
180
177
133
133
178
195
208
175
178
178
202
204
200
183
192
194
202
207
220
228
229
221
226
230
233
233
233
238
247
249
250
254
245
255
245
249
241
238
232
219
215
215
203
198
183
183
183
197
199
209
196
190
192
204
196
194
195
201
202
188
182
190
188
180
180
170
166
170
164
164
155
157
158
169
170
161
153
147
152
139
149
149
157
186
172
156
156
116
128
167
163
161
162
162
161
170
184
182
166
183
191
190
193
195
212
219
209
209
212
215
218
218
226
233
248
251
251
250
246
237
249
239
217
218
209
205
196
196
192
183
179
186
186
181
186
187
185
182
190
194
194
186
193
193
174
175
175
170
161
157
158
164
151
153
156
146
146
152
152
152
153
152
140
142
130
136
151
154
157
167
147
121
102
92
152
159
155
155
162
157
161
161
166
186
194
191
189
193
189
193
207
195
187
193
193
218
221
226
233
244
253
248
254
246
229
224
204
204
202
195
198
194
198
200
189
189
182
177
173
171
173
171
169
172
180
179
173
181
178
165
165
152
153
151
142
119
129
127
119
123
129
129
122
121
135
129
127
119
125
125
134
127
152
152
147
141
127
108
92
120
136
147
147
135
135
150
157
162
175
168
174
183
180
180
193
201
191
191
190
192
200
221
223
219
223
242
251
253
240
216
208
200
191
195
195
185
185
181
188
178
172
172
168
171
170
169
173
173
171
171
171
171
170
161
162
167
152
151
142
135
141
118
115
119
94
87
73
81
89
93
100
103
102
110
114
114
117
127
190
146
127
130
130
80
97
128
135
135
127
127
144
145
162
165
162
163
167
169
162
173
177
188
188
186
192
191
205
205
206
221
229
254
251
233
212
201
191
187
196
182
178
181
177
154
169
157
157
167
157
170
169
170
159
159
151
164
168
162
161
154
154
143
139
135
130
101
51
56
79
69
56
59
40
53
49
55
52
69
69
80
109
115
124
185
185
125
123
124
73
74
119
123
126
127
127
131
130
151
151
142
141
154
153
158
166
166
182
181
179
173
175
190
200
208
221
228
252
247
220
210
191
183
180
182
178
163
161
159
170
170
148
157
156
154
162
162
157
158
166
166
157
145
154
155
149
142
143
114
98
81
49
52
59
59
51
67
67
31
30
30
46
18
6
44
68
89
108
117
164
168
117
115
133
81
82
102
136
137
127
131
135
133
133
149
153
141
149
150
149
154
163
172
174
174
168
164
185
189
192
215
227
244
246
215
188
166
169
172
173
184
168
159
156
160
162
162
171
157
156
160
153
156
163
164
158
147
139
146
140
146
136
118
98
74
77
56
42
47
59
82
82
79
56
31
24
30
48
18
8
18
43
73
105
179
155
130
130
135
96
89
84
125
133
134
140
131
134
126
135
135
136
131
141
137
153
164
166
162
172
172
172
178
184
187
194
215
225
245
194
198
185
175
165
174
179
173
152
149
153
163
171
173
150
151
151
148
156
160
139
138
139
129
140
139
140
127
91
46
42
43
61
60
59
91
91
82
103
79
55
53
57
66
54
20
13
7
18
57
167
153
101
114
125
112
92
76
86
122
117
124
124
122
126
133
129
129
129
134
137
154
164
168
158
165
167
173
177
180
191
194
206
221
224
190
199
179
175
167
164
172
162
158
155
156
156
166
170
163
146
142
128
134
134
126
133
129
129
136
136
121
99
37
39
43
81
62
60
69
80
88
80
82
78
55
64
48
43
29
18
23
12
12
18
67
127
88
125
125
99
112
64
61
106
106
101
99
112
118
106
137
141
141
142
142
155
160
167
158
158
165
165
176
177
183
185
191
203
199
185
175
172
163
163
164
157
157
153
154
156
168
165
165
151
139
137
131
144
144
126
130
127
129
127
130
103
66
36
39
62
81
67
57
78
79
79
102
122
114
77
63
74
59
39
14
4
7
8
10
36
110
104
128
116
106
101
64
51
68
104
97
91
115
106
112
127
135
141
142
145
139
142
148
152
154
164
159
174
174
168
177
196
201
222
176
168
157
166
166
153
157
153
150
150
167
158
165
149
140
133
137
147
133
138
130
124
120
120
116
106
64
38
33
39
46
42
57
39
76
79
84
117
122
121
102
74
111
59
54
46
43
14
14
7
8
59
104
128
124
118
104
81
54
58
79
95
95
98
104
104
106
112
131
134
149
135
140
142
147
148
152
160
167
170
175
175
185
186
222
179
159
157
157
156
149
140
164
147
136
134
143
150
136
135
123
126
123
127
132
128
124
118
107
96
93
45
36
33
22
25
20
31
52
64
82
120
121
125
115
104
104
105
93
81
45
46
21
14
8
7
11
100
147
157
124
124
81
58
35
82
83
82
82
85
86
95
94
105
128
119
131
137
136
144
138
148
152
154
153
171
171
185
192
226
188
156
160
144
153
143
143
139
135
152
135
144
137
139
124
120
114
113
116
103
107
115
99
96
96
66
42
31
30
12
20
42
57
67
75
99
146
146
119
109
104
103
95
109
95
91
80
22
13
35
8
11
23
105
157
145
145
98
59
27
59
63
75
81
93
83
88
97
105
101
115
125
127
127
140
132
132
151
153
153
171
159
177
188
200
166
156
147
141
141
140
143
135
135
149
129
121
121
121
124
109
109
97
111
99
100
100
99
83
102
59
12
18
43
31
47
42
42
49
64
108
153
136
111
104
98
96
86
121
86
94
93
45
23
13
8
19
19
50
143
157
139
102
67
29
46
63
74
81
85
63
58
68
77
96
101
119
109
109
111
116
132
149
147
147
150
155
159
183
182
146
143
147
129
140
134
131
131
116
118
116
121
123
105
110
100
98
97
97
97
106
156
145
152
157
112
9
39
8
8
51
65
66
62
62
121
135
135
117
104
108
107
120
125
114
71
57
39
5
5
18
18
15
26
95
134
150
119
72
67
40
55
55
75
66
66
57
62
77
80
77
84
98
85
87
101
116
127
137
152
163
158
160
160
183
143
137
133
130
133
126
119
129
125
115
112
108
124
98
106
89
88
115
169
167
167
204
234
242
236
46
17
36
20
4
38
56
56
58
62
70
121
135
121
89
108
98
107
130
92
45
32
33
6
5
6
6
19
19
34
77
124
124
76
64
37
28
41
41
62
66
65
57
54
51
65
75
84
80
82
94
98
102
120
135
138
156
154
150
148
143
132
123
119
133
126
119
119
123
123
112
108
108
107
112
112
147
195
201
203
246
248
250
238
173
27
23
58
50
20
77
43
41
39
51
70
70
88
121
79
68
73
103
123
74
40
30
30
10
2
2
5
27
12
28
55
90
122
69
42
28
36
32
40
48
62
65
48
51
55
61
69
62
76
78
89
89
94
104
118
124
138
142
155
148
132
129
108
113
117
117
119
119
91
91
101
105
108
108
168
218
221
209
235
244
246
206
155
125
65
17
33
43
26
28
35
20
21
68
82
74
50
71
127
90
88
86
103
103
55
36
51
32
6
4
30
24
34
18
29
53
60
92
96
45
25
40
53
44
53
78
95
114
107
101
101
89
69
69
60
64
75
75
83
102
116
123
130
148
168
136
130
107
109
107
110
110
104
105
105
110
112
142
229
218
213
216
231
243
241
171
70
101
102
52
30
58
43
39
97
137
46
20
42
78
52
58
56
101
110
92
82
106
71
55
44
58
38
13
13
45
41
37
11
25
31
49
109
102
77
56
67
96
85
85
85
87
89
95
101
106
117
126
99
69
73
69
72
79
110
112
114
116
139
138
130
114
99
84
96
96
96
92
107
133
179
202
209
209
218
217
221
241
241
143
116
142
142
102
66
59
43
37
85
140
137
73
47
39
80
80
93
111
115
110
122
133
110
89
89
53
66
5
20
20
13
33
44
16
23
25
44
126
102
75
37
67
95
95
85
85
89
103
116
116
104
110
112
142
146
131
108
100
89
89
89
104
117
129
160
119
102
102
79
75
93
110
139
188
188
202
206
204
207
217
217
243
248
190
107
165
188
145
134
98
61
43
94
133
85
96
47
57
61
87
102
117
152
177
213
218
202
162
129
103
93
89
30
5
20
42
38
34
16
21
36
86
134
93
82
16
27
46
68
91
110
133
121
57
57
61
38
28
50
61
94
138
156
143
104
90
91
112
125
154
107
84
83
79
72
182
184
198
204
207
207
205
191
199
196
211
246
229
117
127
201
152
159
136
125
85
74
99
119
96
110
85
57
61
87
113
123
157
181
204
235
237
218
159
156
153
116
72
28
35
43
23
4
15
23
35
78
136
114
73
16
36
49
30
68
91
86
72
71
88
102
97
66
74
68
49
67
67
144
138
94
90
83
93
122
104
75
74
88
165
180
182
189
202
210
201
201
195
207
196
233
249
229
120
160
202
183
177
149
147
102
85
99
126
124
143
125
85
79
109
138
128
146
187
199
209
207
191
191
189
164
157
72
37
34
32
18
8
21
14
23
77
107
108
57
22
29
49
51
53
46
35
73
107
124
138
151
128
90
72
67
77
43
22
109
143
145
131
102
122
89
74
74
168
194
212
201
201
209
210
201
204
178
196
194
251
252
225
140
181
201
184
210
154
159
145
108
81
107
91
128
125
93
103
143
169
172
161
189
180
176
193
181
173
170
164
151
117
61
52
50
40
11
19
14
16
42
97
108
70
40
24
32
49
53
50
46
79
107
152
158
168
158
126
110
67
74
83
43
59
51
132
135
101
180
118
124
185
194
197
215
219
218
209
202
192
190
176
176
198
245
238
226
140
183
197
186
210
178
181
146
114
97
109
94
98
88
97
99
154
178
178
192
194
175
184
187
152
158
128
123
119
122
107
70
63
68
20
19
12
16
19
78
96
78
43
32
31
40
34
45
45
61
81
148
161
164
168
160
126
109
86
109
79
75
69
69
61
114
229
199
205
194
210
217
221
223
217
208
203
162
160
166
189
196
244
243
233
196
148
176
183
201
173
174
152
108
93
90
85
94
71
72
112
117
129
138
156
194
196
201
187
158
158
123
107
91
89
71
41
44
23
16
16
9
25
21
53
80
91
75
49
23
26
20
7
21
20
41
96
121
128
141
143
111
82
97
124
112
63
82
69
44
70
235
221
207
216
216
210
216
231
219
213
195
181
127
128
166
189
252
253
240
229
133
153
188
188
173
168
135
104
68
23
64
94
102
72
96
106
113
127
137
134
160
175
212
207
144
99
99
91
95
75
35
27
8
13
8
7
8
16
52
88
81
72
73
59
25
30
10
20
20
40
63
62
96
120
157
132
65
73
139
114
56
55
88
30
38
242
221
200
207
214
207
214
216
206
194
193
181
143
131
148
169
254
255
240
223
112
144
188
187
177
161
119
86
78
59
70
90
100
79
85
135
150
156
155
127
158
155
202
176
136
89
89
122
113
96
80
66
6
6
5
8
11
12
36
68
80
80
69
61
59
46
44
46
42
40
51
51
57
105
159
179
104
60
60
140
108
55
49
54
59
242
223
218
214
211
209
216
216
200
200
204
176
170
137
152
159
249
253
249
236
122
142
170
193
173
137
111
83
51
42
68
85
96
99
95
113
141
142
164
154
119
77
72
58
34
48
65
71
90
105
80
37
24
6
5
5
15
14
32
46
76
83
56
56
67
62
59
77
73
50
51
51
123
136
145
182
176
92
53
152
147
77
39
85
60
244
223
218
212
211
215
216
203
201
201
204
176
166
148
146
134
244
250
252
242
190
121
169
178
158
159
107
71
51
50
77
77
59
81
78
109
127
152
145
121
123
61
5
3
7
4
17
39
57
24
24
29
2
2
13
18
21
31
35
45
45
68
54
56
57
57
99
62
62
91
65
108
87
112
116
157
183
110
33
74
165
98
36
58
84
244
231
221
214
208
215
218
211
201
189
201
184
156
149
155
137
242
251
251
242
230
121
169
167
155
156
82
75
50
60
77
99
64
54
40
71
89
144
128
155
139
100
29
7
17
34
34
22
9
2
7
7
5
8
26
35
34
38
39
75
71
71
77
77
71
54
84
66
86
82
82
87
87
112
116
118
148
101
33
26
138
135
65
16
78
250
221
208
201
180
194
221
211
203
189
171
188
170
153
155
146
241
252
253
246
227
129
142
164
155
150
75
43
55
63
66
53
56
45
61
63
56
104
118
102
95
41
49
53
85
63
65
34
7
5
10
11
24
31
31
42
52
37
56
85
85
93
112
107
108
93
84
95
100
104
94
117
136
91
99
99
86
56
5
9
60
100
62
16
17
212
200
194
162
162
166
188
192
200
200
173
184
191
163
155
143
130
246
252
246
231
108
108
139
132
110
41
41
41
79
87
19
19
45
57
33
28
47
59
76
51
43
108
89
112
131
106
26
7
7
10
62
66
74
38
38
68
63
56
85
99
125
116
107
119
118
128
120
96
115
124
114
100
74
99
83
67
47
20
23
51
100
66
66
73
194
179
185
184
162
166
166
148
188
195
191
180
189
180
146
127
127
243
249
250
249
158
70
82
109
92
73
33
28
40
45
34
23
45
60
32
31
22
23
12
27
57
106
89
87
148
124
26
10
10
34
65
67
79
89
83
83
93
104
114
142
145
144
123
119
118
109
126
119
92
120
63
69
95
117
133
112
97
72
100
100
124
121
126
136
210
196
208
206
183
183
200
182
130
177
188
188
191
181
146
146
108
195
251
251
253
222
64
63
80
88
60
23
18
36
65
31
17
32
56
69
48
26
18
48
75
75
57
54
56
123
102
15
5
9
46
79
73
76
89
110
112
125
128
130
150
147
135
134
127
127
106
124
119
104
127
76
74
98
93
117
100
98
122
133
133
153
145
137
147
216
211
203
202
188
173
164
152
166
158
174
195
205
187
175
139
145
149
249
247
252
254
176
57
33
50
25
23
49
74
72
31
15
11
46
79
81
73
71
93
121
122
102
77
23
23
19
7
3
2
71
94
94
98
104
115
120
123
128
130
134
119
119
113
102
114
144
146
123
128
129
93
90
97
111
124
95
120
141
146
159
159
159
153
157
225
209
188
189
188
201
176
122
133
189
144
159
186
190
185
142
139
133
233
247
248
254
240
100
43
28
44
44
49
50
41
30
30
21
36
62
37
37
59
66
78
79
83
44
38
19
17
13
35
51
81
96
124
101
133
126
120
122
123
123
120
112
118
95
77
77
132
135
140
138
109
96
90
98
114
90
91
122
145
143
153
158
145
156
160
206
117
94
96
105
189
206
160
145
140
171
137
159
191
187
172
150
173
250
252
250
249
243
201
100
36
40
29
31
30
30
30
57
34
65
72
89
101
105
30
28
38
38
6
30
31
15
20
46
64
94
101
127
135
129
126
124
129
129
112
122
126
106
95
91
91
119
125
139
130
99
72
87
80
70
68
66
119
137
144
148
145
109
112
149
254
251
225
206
145
130
202
175
170
96
132
186
153
166
190
172
171
227
252
239
248
244
243
232
176
111
35
29
26
30
30
38
56
65
83
83
109
142
127
116
65
38
6
9
9
33
57
63
82
88
101
108
126
130
126
127
120
128
116
102
99
122
93
98
98
91
103
101
92
107
72
64
66
70
58
60
66
115
122
149
128
126
101
103
144
254
254
240
229
223
158
160
201
158
110
110
123
136
156
161
164
174
182
234
238
246
224
188
142
150
168
48
44
26
7
28
20
26
51
87
85
64
64
99
101
85
71
23
25
49
88
103
111
100
105
125
126
133
137
151
141
128
134
126
79
99
93
93
104
94
109
118
98
83
71
60
60
61
36
58
50
79
102
94
119
119
109
114
133
138
253
253
238
232
230
217
115
173
202
107
134
123
114
144
144
152
164
164
107
89
120
80
58
62
116
174
119
53
39
14
36
17
42
68
72
57
62
46
32
6
26
41
41
84
107
139
133
144
127
128
125
129
129
114
119
127
129
123
116
101
98
63
105
104
66
64
64
67
33
30
50
57
42
52
49
34
34
30
76
94
103
95
117
139
127
253
251
239
241
248
236
192
144
186
113
153
153
128
123
130
125
163
178
122
89
110
110
80
85
117
139
138
37
29
40
38
43
42
47
65
55
53
49
49
29
55
98
98
111
131
144
145
136
137
125
125
133
132
105
87
107
106
115
99
101
103
100
105
105
101
85
67
60
30
30
72
70
62
47
31
26
37
30
55
62
70
92
109
133
118
254
252
241
243
249
239
237
155
128
105
158
200
153
144
155
129
145
166
159
153
166
138
83
88
109
38
138
57
27
36
37
27
22
28
28
53
59
64
85
88
106
116
122
122
143
131
131
145
138
132
128
128
110
101
93
99
98
119
149
136
144
139
131
130
128
117
88
70
37
37
40
33
38
31
25
26
14
37
31
44
58
52
87
78
110
254
251
243
241
241
238
235
226
134
99
172
193
168
120
155
116
135
164
168
155
166
138
98
112
110
66
154
82
101
54
17
11
9
30
70
82
93
104
113
113
125
121
119
134
129
120
130
125
126
125
113
97
112
95
90
71
95
126
151
142
133
103
75
75
75
89
99
89
47
34
35
22
21
21
25
24
14
26
26
25
45
47
52
48
85
250
239
242
242
239
236
231
226
196
160
161
198
168
128
125
127
132
166
165
160
178
139
116
130
99
99
131
105
91
49
19
19
84
129
110
133
135
139
137
128
119
117
117
135
129
126
102
93
100
110
87
63
110
93
89
70
70
126
135
96
95
68
65
97
51
38
59
81
56
44
18
14
16
22
21
23
18
23
24
23
34
56
64
48
84
248
239
242
248
244
239
234
227
203
197
142
161
213
125
80
144
132
160
173
160
170
165
119
138
80
81
77
86
42
41
48
128
144
144
145
145
147
158
148
136
117
117
135
107
91
98
89
83
71
69
58
57
88
94
100
118
101
128
111
96
89
59
69
63
93
93
43
38
33
25
18
12
16
24
15
25
22
20
15
17
25
44
31
37
40
239
222
243
248
245
244
244
243
210
213
193
147
140
203
116
115
139
133
161
159
160
161
134
124
64
53
33
33
46
101
132
151
151
167
145
167
180
180
173
124
115
109
98
81
70
88
95
77
82
69
57
57
89
95
90
127
112
135
129
89
24
41
80
43
18
95
60
45
31
20
24
22
24
32
13
31
22
22
30
25
20
28
25
32
34
247
222
234
251
248
244
241
236
226
224
231
161
92
123
203
150
139
133
160
152
161
160
132
114
48
48
59
130
151
135
138
160
177
184
190
180
172
167
148
124
87
89
102
82
83
94
88
60
82
107
124
113
101
87
82
90
127
166
171
159
79
55
43
16
1
58
70
69
39
37
36
19
32
28
15
12
30
23
34
34
31
32
28
28
41
253
243
243
249
250
249
240
231
220
211
226
204
97
65
97
192
179
160
160
137
165
150
110
90
45
72
123
156
189
179
154
181
181
176
191
202
172
155
144
122
107
100
104
82
100
75
81
93
95
95
65
56
56
68
79
114
139
151
149
160
165
135
52
30
30
55
50
58
79
42
36
41
54
33
19
32
43
30
27
27
24
28
19
21
39
248
242
242
250
253
249
249
229
233
198
215
215
158
97
130
156
189
108
158
137
149
131
98
60
31
89
141
182
193
195
195
189
189
183
174
185
155
134
144
104
51
51
76
90
74
62
45
32
56
51
58
56
84
68
68
109
116
118
104
115
155
158
150
108
108
106
66
48
60
76
77
91
78
70
64
50
45
30
27
36
21
22
20
21
25
247
238
228
219
252
245
244
229
200
156
181
217
157
126
197
215
198
105
159
143
141
141
105
60
60
106
170
177
198
195
199
189
170
161
156
129
130
122
107
88
56
51
185
145
84
33
24
24
47
28
70
65
73
51
97
75
99
89
102
109
140
133
105
97
97
97
80
70
64
77
83
84
82
70
69
50
45
32
25
21
20
22
22
29
29
238
234
234
233
242
238
223
236
174
149
176
210
196
140
180
207
222
120
147
147
135
149
111
64
64
142
162
187
201
198
172
170
117
56
29
36
102
116
110
59
26
158
185
121
35
23
21
23
24
28
57
74
76
73
82
78
93
110
143
145
153
141
94
80
80
89
90
97
86
87
112
106
74
52
38
26
23
43
29
24
23
42
33
32
32
237
231
233
232
232
241
234
228
204
141
157
183
196
101
152
206
229
123
135
146
101
142
81
66
73
161
173
196
208
201
184
160
81
28
17
88
127
110
75
17
12
200
198
113
34
28
54
32
144
179
127
71
64
74
86
91
104
110
122
153
163
150
148
142
122
111
97
112
107
94
94
60
48
19
22
26
26
54
31
28
26
28
30
31
32
237
233
219
227
232
237
228
223
232
157
146
164
199
115
113
206
242
102
88
132
101
125
71
48
87
159
173
197
212
196
172
162
160
75
142
127
78
61
29
14
68
222
202
102
43
51
40
91
179
147
105
64
45
65
74
107
95
98
90
122
139
149
153
145
137
137
136
127
92
62
53
30
36
26
36
26
26
38
42
20
21
34
31
29
34
231
231
217
226
226
235
243
227
227
200
130
127
177
136
106
196
231
139
88
103
74
113
60
43
94
158
180
205
206
214
172
144
190
142
62
62
33
34
23
16
146
243
230
46
34
27
11
217
179
105
35
24
41
65
100
102
102
100
90
90
125
107
109
119
113
102
98
62
63
53
48
35
42
46
49
30
30
34
29
22
29
50
49
29
32
241
226
209
223
233
239
241
222
222
218
131
92
151
121
111
208
176
134
93
53
70
74
56
43
137
157
190
218
225
223
179
144
205
210
32
43
33
18
12
22
215
242
180
25
23
12
141
221
197
63
17
29
50
82
97
84
65
53
52
66
73
81
92
94
95
83
57
55
70
43
43
39
46
46
37
23
30
33
36
22
20
19
37
37
51
240
236
217
217
233
243
244
223
194
189
217
90
108
104
102
193
174
134
101
61
104
64
61
43
137
148
181
217
215
207
146
162
220
193
40
40
25
11
17
130
222
225
133
17
20
22
210
210
189
23
13
25
46
82
99
99
82
42
45
46
62
66
66
89
64
72
51
83
70
47
33
49
49
53
44
35
38
32
39
33
27
28
39
40
34
231
228
224
230
235
241
244
233
204
189
200
147
94
110
104
172
115
66
63
86
89
64
43
47
101
137
165
176
185
151
120
143
212
188
46
25
14
6
43
189
205
187
104
30
30
159
227
189
112
26
5
25
36
74
61
61
60
46
45
51
55
76
79
76
62
62
51
62
51
57
48
57
71
47
44
53
25
21
35
22
22
39
37
34
33
228
219
213
217
231
227
235
234
214
204
200
199
128
82
88
104
59
22
55
62
75
75
69
44
80
95
127
136
136
113
62
81
212
161
18
10
8
10
158
203
172
121
36
12
95
227
227
180
46
18
14
28
52
69
74
61
59
92
72
72
57
70
79
87
62
56
49
62
51
57
63
65
54
47
49
44
37
7
12
34
36
25
45
34
43
226
220
216
215
215
221
232
245
232
214
194
182
192
69
62
77
46
13
48
82
129
114
112
58
44
46
63
88
88
58
34
81
232
164
44
5
8
141
179
173
145
74
0
98
173
224
192
108
45
24
21
24
43
72
81
81
105
93
89
83
73
72
92
86
76
56
49
43
65
67
58
58
62
68
62
43
37
19
5
29
28
45
47
41
41
217
209
211
212
221
217
224
237
236
217
193
162
160
144
46
72
97
23
48
147
164
159
133
69
44
45
71
72
57
35
26
202
235
220
133
127
188
189
143
100
90
20
72
184
179
170
139
98
73
30
20
24
53
63
68
68
84
89
80
80
67
67
79
73
68
75
57
42
43
36
52
58
71
49
40
40
33
19
25
21
16
26
36
45
41
186
199
201
215
222
223
224
231
222
226
209
157
137
144
45
70
93
23
136
160
164
138
85
52
63
144
90
57
68
28
30
206
218
184
175
218
218
201
129
73
28
48
191
191
165
102
96
113
121
40
24
24
49
54
71
93
75
74
74
70
70
79
79
76
68
92
69
51
39
34
63
37
45
50
40
35
27
24
24
21
26
23
45
54
65
172
169
175
193
208
221
220
222
222
226
213
190
148
105
29
42
57
104
153
141
69
9
6
5
37
177
161
63
58
28
67
186
184
209
217
228
227
216
116
68
66
182
198
165
109
54
116
144
98
45
32
29
41
54
58
58
75
70
74
65
61
70
71
60
57
69
55
46
58
56
56
37
45
48
29
35
34
33
31
31
37
45
35
54
57
178
167
171
171
173
214
209
193
222
224
223
186
150
52
14
39
142
136
80
31
31
15
8
5
97
165
186
202
195
152
148
166
183
214
240
238
233
227
194
141
188
185
152
85
54
103
144
106
41
44
30
31
25
24
39
41
56
56
48
45
62
57
71
60
53
50
62
49
56
56
66
52
48
36
20
20
48
61
51
31
29
47
35
47
64
178
162
149
156
173
173
189
188
214
226
231
178
147
41
11
117
98
45
30
36
57
115
86
103
97
93
129
163
152
116
123
182
209
236
240
243
240
230
181
162
217
141
82
60
128
139
114
64
17
79
30
18
27
18
36
42
41
63
48
48
61
57
42
79
59
45
69
49
49
47
44
44
44
36
39
20
55
74
31
34
20
26
35
45
45
199
162
162
149
147
166
177
187
196
227
226
187
153
41
20
11
23
45
33
57
96
89
79
50
100
35
35
45
81
81
101
179
198
228
237
240
241
230
146
189
206
138
90
104
138
94
59
55
106
79
14
8
10
30
36
42
40
41
48
42
33
41
41
64
48
38
35
78
39
39
44
44
25
22
60
87
100
49
36
31
12
15
23
30
57
185
173
181
180
179
183
200
183
191
207
195
171
154
38
20
24
125
134
135
124
135
74
62
57
111
15
9
12
81
65
101
178
198
213
223
233
244
233
187
217
219
152
112
92
60
25
24
68
48
44
14
14
27
29
26
15
25
40
59
33
34
39
40
37
29
46
43
103
47
52
56
43
25
17
24
74
115
42
30
30
21
22
33
46
71
193
178
178
180
186
188
180
179
196
212
177
165
121
71
36
129
152
144
120
58
62
74
57
110
75
16
104
202
203
105
98
166
181
213
233
240
246
231
219
218
171
136
136
96
65
86
73
43
48
35
33
20
8
11
11
27
15
22
33
30
25
29
39
29
28
35
38
121
87
29
19
16
17
7
46
59
133
94
62
72
111
42
33
43
102
190
178
182
191
193
200
177
174
182
196
179
180
132
60
24
69
100
83
79
76
65
64
29
22
28
150
211
228
151
50
62
180
188
217
242
243
242
219
219
191
135
140
146
92
80
86
79
72
60
17
14
12
9
14
14
22
15
21
19
19
25
25
29
30
20
22
18
21
87
69
19
16
81
140
52
59
116
116
153
105
91
74
52
113
109
201
169
154
182
193
201
192
181
158
158
167
177
110
103
27
30
37
76
69
55
46
35
35
33
107
211
230
177
100
36
136
189
207
220
230
235
224
221
210
169
149
125
95
83
78
78
84
18
11
10
18
12
34
49
49
35
24
30
28
18
19
41
37
25
23
12
12
15
83
97
74
39
103
1
50
62
127
131
92
116
91
105
125
118
118
206
176
175
174
194
210
224
232
229
214
194
177
166
155
112
37
19
19
28
28
39
147
147
123
213
236
230
141
123
111
190
204
205
208
220
212
211
215
194
150
143
131
94
88
82
49
12
14
11
10
18
14
39
113
118
116
82
32
28
23
18
32
5
17
23
21
21
78
83
31
50
92
68
49
123
135
98
79
69
90
109
105
130
130
134
191
176
175
174
194
221
226
226
217
217
227
223
190
190
204
143
56
37
43
45
195
217
155
214
239
243
204
127
152
171
189
206
214
217
212
193
188
171
130
128
134
128
102
81
54
17
14
14
19
20
13
14
17
32
83
99
121
109
37
31
9
14
10
32
30
26
50
82
45
24
38
88
121
120
81
85
164
79
60
69
107
104
67
53
116
158
158
187
191
224
221
229
234
227
223
230
232
209
191
215
226
195
190
144
137
212
212
217
234
241
246
204
114
187
181
200
206
213
209
196
184
182
159
124
124
105
95
67
44
25
20
27
25
30
28
13
12
14
21
15
8
13
37
55
63
25
13
33
65
65
103
99
103
84
62
83
78
69
146
157
120
112
89
72
95
125
117
74
80
75
163
153
191
203
215
222
228
230
225
220
230
227
214
211
213
214
202
206
177
196
205
201
193
233
226
246
205
114
189
208
210
208
212
197
193
173
153
124
111
94
73
64
39
35
29
41
42
33
37
21
13
11
10
16
11
11
14
22
71
71
103
103
92
87
19
120
95
91
92
126
125
117
149
145
124
120
123
84
83
97
97
106
124
122
105
191
163
193
199
202
216
220
220
209
219
231
227
229
220
217
204
203
206
206
197
197
182
189
223
223
242
205
111
143
199
217
225
220
201
177
162
127
110
107
61
61
40
25
34
24
24
46
31
29
21
21
23
7
9
6
10
10
18
22
15
21
57
105
127
101
94
109
114
113
82
130
133
133
124
117
123
135
135
127
122
126
162
155
150
102
184
163
182
198
201
203
216
206
205
219
219
231
226
226
230
214
210
206
206
198
175
175
189
220
229
235
227
95
111
154
171
196
206
195
159
133
131
104
83
55
26
26
32
49
24
40
66
49
24
19
40
112
7
8
11
11
8
22
12
12
21
40
42
114
139
150
109
131
140
131
159
132
126
126
143
143
126
84
56
104
104
126
145
149
176
171
171
172
198
192
201
201
202
192
197
216
209
228
211
215
215
212
196
196
198
165
181
222
234
234
231
233
93
99
129
147
166
184
159
152
130
122
84
47
28
19
24
44
38
38
71
66
77
29
20
99
125
78
8
11
15
27
26
72
52
26
67
101
150
117
145
149
140
131
139
130
145
148
147
144
141
141
136
136
137
104
106
128
138
149
133
124
112
145
155
166
173
188
186
203
215
201
229
217
212
210
201
198
196
177
140
175
207
232
226
211
233
141
69
84
118
127
166
157
137
61
56
55
28
23
23
31
38
39
62
62
55
59
17
10
110
20
55
80
17
17
54
88
90
115
115
154
147
114
114
149
147
143
140
139
131
137
137
148
144
115
115
141
85
70
84
138
156
168
170
114
116
106
129
125
150
162
170
180
196
201
201
229
212
209
210
201
194
190
149
160
184
211
223
224
183
235
176
65
75
127
140
120
67
54
37
24
14
14
16
45
45
39
55
76
79
74
42
23
106
123
45
27
52
119
39
34
94
103
38
84
133
136
148
163
150
131
148
147
153
105
136
124
106
106
120
120
130
147
60
66
88
109
139
164
156
137
95
109
112
122
136
148
168
188
185
184
205
199
216
210
184
159
156
138
159
187
217
229
225
197
226
213
65
75
91
56
50
50
42
25
11
6
17
43
36
49
59
59
78
81
57
42
98
87
43
50
37
22
102
143
140
140
137
142
153
153
177
161
151
163
163
140
140
171
163
163
143
106
102
99
96
132
150
159
143
114
114
138
155
117
116
130
111
114
107
117
148
169
191
181
167
175
158
186
186
169
142
148
136
186
189
217
226
225
202
211
226
107
42
53
43
48
50
26
13
11
35
35
35
39
59
41
52
50
39
7
126
89
89
107
65
28
96
96
101
129
144
131
122
119
144
144
145
150
119
119
120
148
156
163
163
177
174
153
171
148
148
153
142
164
129
107
122
172
89
113
100
91
112
129
125
142
173
186
180
179
174
158
158
159
148
115
149
113
163
189
226
230
226
205
211
234
167
29
42
40
28
27
27
17
17
42
43
36
44
41
41
52
96
119
159
108
97
138
142
72
109
97
79
99
103
103
131
112
70
107
83
121
127
111
126
174
175
167
165
154
142
163
173
173
192
170
160
139
132
119
133
121
145
103
113
123
125
117
142
142
142
146
165
160
182
176
161
150
137
119
108
154
87
92
173
213
242
229
198
216
229
204
44
18
28
28
23
23
22
34
53
35
45
44
39
90
145
82
119
106
82
75
116
65
76
118
64
96
99
44
57
91
158
139
130
147
151
140
130
103
98
113
161
165
139
141
129
148
129
136
138
137
139
139
139
100
100
63
117
78
107
125
117
126
142
146
153
162
143
149
158
158
156
165
143
142
142
176
102
116
213
231
222
216
218
218
203
71
42
78
90
70
29
29
34
60
46
64
67
86
82
77
77
124
97
82
91
114
120
146
85
100
105
66
47
78
109
163
172
159
155
128
128
165
144
108
103
113
126
137
137
116
127
109
118
122
121
152
156
144
140
126
87
102
82
91
85
89
89
126
139
162
172
161
168
172
159
141
142
138
125
148
177
102
87
154
217
209
209
220
226
220
96
90
182
141
50
22
22
47
30
78
86
77
91
71
78
100
121
98
84
111
150
159
102
63
117
186
204
206
167
126
115
103
111
122
147
153
154
185
158
134
120
93
116
132
116
127
138
132
149
160
107
118
110
101
133
147
37
73
82
65
79
80
91
127
134
139
149
151
152
156
147
139
135
126
123
166
99
88
99
177
184
180
198
218
217
96
102
178
137
84
25
37
53
66
97
72
84
88
79
90
158
121
106
131
135
154
164
172
183
196
186
202
195
193
193
167
167
102
102
106
109
145
149
102
106
109
116
104
113
143
143
192
181
176
107
107
124
89
120
121
143
37
48
53
78
58
56
89
98
121
104
104
123
148
156
123
123
98
104
108
146
112
80
83
165
135
155
198
227
195
129
155
137
90
59
54
47
44
62
80
94
106
82
55
97
170
161
164
115
132
188
199
191
191
195
174
190
208
194
185
176
194
191
153
106
90
63
74
124
109
106
92
114
128
125
154
165
165
96
106
106
89
72
115
110
110
32
33
66
78
65
28
48
49
72
76
57
63
77
76
73
88
88
97
108
146
97
79
109
147
137
155
152
195
157
132
147
104
89
59
67
66
74
88
91
122
110
82
82
157
151
161
142
172
181
191
187
189
188
196
204
205
205
205
185
195
155
124
112
110
92
80
71
96
139
123
135
135
106
106
146
165
82
99
88
94
79
77
94
119
117
95
37
31
16
5
5
13
14
15
40
43
50
60
56
63
39
69
55
177
116
106
83
99
120
120
102
92
93
132
160
77
59
101
62
86
93
97
90
85
88
102
91
143
164
192
195
176
193
174
107
154
136
144
186
186
176
196
190
124
90
67
76
86
94
94
109
92
92
128
138
138
118
116
124
133
71
82
106
101
98
87
96
107
127
98
123
50
31
16
10
13
13
14
12
23
17
15
18
26
12
10
10
9
36
143
92
71
83
64
70
96
72
75
79
81
41
55
80
80
91
100
65
70
90
95
98
165
202
211
203
211
230
231
220
209
188
176
172
168
138
138
88
104
112
91
69
83
83
86
104
105
112
122
140
138
118
115
149
127
106
105
105
107
93
93
63
63
49
69
69
123
62
55
47
26
24
27
23
23
21
21
21
23
31
36
28
40
41
58
154
95
49
65
62
62
75
57
49
37
43
51
55
71
67
105
100
76
71
85
85
98
199
199
217
203
212
217
223
219
226
226
213
219
227
186
177
121
104
109
103
91
99
110
111
117
143
142
137
152
117
115
120
142
116
78
89
105
105
85
75
70
70
52
52
88
147
120
79
55
37
23
27
21
31
40
34
47
41
70
51
40
46
41
56
99
47
46
90
92
47
49
49
35
52
58
58
90
79
69
119
110
75
96
68
92
107
164
188
199
187
212
221
226
230
232
229
219
213
224
220
192
200
188
173
145
115
112
115
115
115
136
136
116
105
100
104
99
99
74
66
67
86
85
115
84
78
100
89
79
84
170
132
86
54
35
29
30
36
35
40
43
47
37
48
32
41
62
65
77
75
71
77
66
59
47
54
47
51
54
71
71
92
75
64
103
59
79
109
66
97
127
161
144
172
172
193
209
225
235
237
230
219
209
221
224
229
222
191
218
222
211
211
173
159
141
127
111
72
83
82
109
101
91
78
59
63
62
89
118
91
73
94
109
120
103
177
142
118
96
65
35
60
65
56
54
46
46
46
51
62
70
80
87
77
75
80
91
75
76
62
72
59
63
60
63
71
87
55
51
105
78
104
170
71
87
125
167
153
176
156
139
157
165
171
209
219
218
219
221
217
229
238
238
226
209
208
211
208
207
211
198
130
121
116
88
88
100
55
67
72
35
59
86
82
65
39
33
58
103
120
197
162
125
109
89
59
48
48
49
44
58
46
46
66
81
73
63
74
74
75
88
69
68
76
78
82
73
57
58
64
84
84
55
90
110
73
60
80
40
71
145
158
112
108
155
159
165
149
162
190
191
217
204
213
212
204
219
229
234
231
230
208
195
207
224
211
201
184
154
147
135
126
28
28
59
72
91
73
42
12
11
35
35
68
89
214
176
152
123
106
86
57
55
53
57
58
41
50
52
53
62
58
74
88
88
88
69
95
76
78
90
92
63
63
64
96
78
45
95
105
49
63
34
29
38
148
157
87
88
119
145
163
152
152
181
155
153
160
160
188
196
204
219
219
225
201
191
204
210
219
210
210
200
199
180
164
163
132
80
41
13
42
42
22
17
42
41
35
57
84
211
169
157
124
114
114
123
92
93
77
78
64
58
51
57
62
60
58
91
95
97
88
100
119
114
104
113
86
68
73
92
54
46
94
84
49
49
32
31
21
138
150
145
151
165
154
154
170
164
178
178
174
168
153
166
173
170
210
220
203
187
211
213
212
217
213
203
204
199
192
197
174
191
184
177
148
42
52
44
57
66
81
85
83
101
224
183
128
112
110
126
128
119
110
99
98
100
108
136
121
104
58
53
40
54
56
68
68
61
82
89
86
86
75
75
92
96
96
96
88
79
47
45
42
37
137
169
186
186
168
170
171
173
164
151
158
168
165
165
181
185
161
161
157
166
187
218
213
190
199
208
204
202
193
189
201
186
179
178
187
187
190
166
124
107
80
83
103
108
145
236
208
177
150
135
125
125
127
136
136
124
130
134
138
146
75
75
51
19
25
30
27
26
22
25
27
27
27
45
57
49
90
96
84
53
85
84
74
25
51
112
152
168
181
186
172
160
174
174
170
155
163
163
161
179
185
160
126
133
160
170
184
184
166
186
187
193
190
203
189
183
181
177
178
185
192
192
210
174
173
164
131
119
114
143
236
209
165
166
167
156
109
108
99
120
119
145
147
144
151
168
129
99
69
36
19
26
38
25
47
41
38
33
57
74
74
50
85
85
90
90
85
41
22
65
121
164
152
156
172
163
163
175
171
157
144
160
160
156
143
143
141
133
133
169
168
168
167
165
144
167
183
189
179
205
199
185
185
175
179
192
187
200
198
196
196
186
184
142
143
203
198
193
150
174
174
134
114
99
99
111
119
106
117
133
129
100
105
104
86
73
60
97
97
94
109
89
91
110
99
102
101
117
129
111
80
27
41
49
65
140
164
180
163
162
149
151
159
162
164
148
160
121
139
178
152
138
151
129
146
180
183
173
178
178
170
167
175
175
178
179
191
187
181
170
168
186
192
196
195
192
197
203
203
205
222
197
197
145
172
167
160
137
123
119
118
106
106
104
101
104
116
140
129
116
145
143
142
153
152
130
125
139
125
121
100
103
121
126
90
80
35
39
23
86
154
145
138
162
151
148
151
151
159
173
177
177
189
177
173
153
151
173
179
169
172
181
181
188
184
183
180
167
153
155
157
134
159
171
170
184
187
189
195
195
201
199
217
217
221
241
205
211
182
179
139
149
145
170
168
152
150
123
121
120
110
121
140
129
137
154
154
153
182
172
170
158
140
137
147
121
127
131
114
110
106
26
17
28
143
164
85
98
184
170
159
169
156
160
173
179
170
164
164
164
167
169
166
166
172
174
176
172
180
177
172
169
165
161
166
168
166
152
162
156
165
196
183
194
199
203
217
217
217
225
247
230
211
200
179
207
168
173
197
195
195
204
189
167
158
145
145
164
164
157
156
154
136
141
147
150
150
153
139
136
134
134
155
132
106
60
36
49
100
143
167
163
161
186
188
167
162
162
164
181
187
167
156
156
157
164
185
187
182
199
199
202
179
187
184
173
183
188
177
177
203
197
197
181
181
165
172
183
187
194
200
226
212
213
216
